<?xml version='1.0' encoding='iso-8859-1'?>
<svg version="1.1" xmlns="http://www.w3.org/2000/svg" viewBox="0 0 470 470" xmlns:xlink="http://www.w3.org/1999/xlink" enable-background="new 0 0 470 470">
  <g>
    <path d="m235,135.95c4.143,0 7.5-3.358 7.5-7.5v-30c0-4.142-3.357-7.5-7.5-7.5s-7.5,3.358-7.5,7.5v30c0,4.142 3.357,7.5 7.5,7.5z"/>
    <path d="m235,358.798c4.143,0 7.5-3.358 7.5-7.5v-192.848c0-4.142-3.357-7.5-7.5-7.5s-7.5,3.358-7.5,7.5v192.848c0,4.142 3.357,7.5 7.5,7.5z"/>
    <path d="m462.5,75.527c-4.143,0-7.5,3.358-7.5,7.5v314.035h-191.268c-3.839,0-7.414,1.824-9.675,4.907l-6.429,7.502-25.254,.002-6.432-7.502c-2.265-3.084-5.841-4.909-9.676-4.909h-191.266v-314.035c0-4.142-3.357-7.5-7.5-7.5s-7.5,3.358-7.5,7.5v321.535c0,4.142 3.357,7.5 7.5,7.5h197.337l8.396,9.793c1.425,1.662 3.505,2.618 5.694,2.618l32.152-.003c2.189,0 4.27-0.957 5.694-2.62l8.389-9.789h197.338c4.143,0 7.5-3.358 7.5-7.5v-321.534c0-4.142-3.357-7.5-7.5-7.5z"/>
    <path d="m37.5,382.062h168.768c9.057,0 17.463,4.509 22.488,12.063 1.391,2.09 3.734,3.346 6.245,3.346 2.51,0 4.854-1.256 6.244-3.347 5.022-7.553 13.429-12.062 22.487-12.062h168.768c4.143,0 7.5-3.358 7.5-7.5v-321.535c0-4.142-3.357-7.5-7.5-7.5h-168.768c-10.816,0-21.035,4.134-28.732,11.373-7.698-7.238-17.916-11.373-28.732-11.373h-168.768c-4.143,0-7.5,3.358-7.5,7.5v321.535c0,4.142 3.357,7.5 7.5,7.5zm7.5-321.535h161.268c9.056,1.42109e-14 17.462,4.514 22.486,12.075 1.39,2.092 3.734,3.349 6.246,3.349s4.856-1.257 6.247-3.349c5.023-7.561 13.429-12.074 22.485-12.074h161.268v306.535h-161.268c-10.817,0-21.035,4.131-28.733,11.363-7.698-7.232-17.916-11.363-28.731-11.363h-161.268v-306.536z"/>
    <path d="m195,85.527h-117.5c-4.143,0-7.5,3.358-7.5,7.5s3.357,7.5 7.5,7.5h117.5c4.143,0 7.5-3.358 7.5-7.5s-3.357-7.5-7.5-7.5z"/>
    <path d="m195,115.527h-117.5c-4.143,0-7.5,3.358-7.5,7.5s3.357,7.5 7.5,7.5h117.5c4.143,0 7.5-3.358 7.5-7.5s-3.357-7.5-7.5-7.5z"/>
    <path d="m195,145.527h-117.5c-4.143,0-7.5,3.358-7.5,7.5s3.357,7.5 7.5,7.5h117.5c4.143,0 7.5-3.358 7.5-7.5s-3.357-7.5-7.5-7.5z"/>
    <path d="m195,175.527h-117.5c-4.143,0-7.5,3.358-7.5,7.5s3.357,7.5 7.5,7.5h117.5c4.143,0 7.5-3.358 7.5-7.5s-3.357-7.5-7.5-7.5z"/>
    <path d="m195,205.527h-117.5c-4.143,0-7.5,3.358-7.5,7.5s3.357,7.5 7.5,7.5h117.5c4.143,0 7.5-3.358 7.5-7.5s-3.357-7.5-7.5-7.5z"/>
    <path d="m77.5,250.527h58.75c4.143,0 7.5-3.358 7.5-7.5s-3.357-7.5-7.5-7.5h-58.75c-4.143,0-7.5,3.358-7.5,7.5s3.357,7.5 7.5,7.5z"/>
    <path d="m195,265.527h-117.5c-4.143,0-7.5,3.358-7.5,7.5v61.535c0,4.142 3.357,7.5 7.5,7.5h117.5c4.143,0 7.5-3.358 7.5-7.5v-61.535c0-4.142-3.357-7.5-7.5-7.5zm-7.5,61.535h-102.5v-46.535h102.5v46.535z"/>
    <path d="m265,222.062h117.5c4.143,0 7.5-3.358 7.5-7.5s-3.357-7.5-7.5-7.5h-117.5c-4.143,0-7.5,3.358-7.5,7.5s3.357,7.5 7.5,7.5z"/>
    <path d="m265,252.062h117.5c4.143,0 7.5-3.358 7.5-7.5s-3.357-7.5-7.5-7.5h-117.5c-4.143,0-7.5,3.358-7.5,7.5s3.357,7.5 7.5,7.5z"/>
    <path d="m265,282.062h117.5c4.143,0 7.5-3.358 7.5-7.5s-3.357-7.5-7.5-7.5h-117.5c-4.143,0-7.5,3.358-7.5,7.5s3.357,7.5 7.5,7.5z"/>
    <path d="m265,312.062h117.5c4.143,0 7.5-3.358 7.5-7.5s-3.357-7.5-7.5-7.5h-117.5c-4.143,0-7.5,3.358-7.5,7.5s3.357,7.5 7.5,7.5z"/>
    <path d="m265,342.062h58.75c4.143,0 7.5-3.358 7.5-7.5s-3.357-7.5-7.5-7.5h-58.75c-4.143,0-7.5,3.358-7.5,7.5s3.357,7.5 7.5,7.5z"/>
    <path d="m265,177.062c-4.143,0-7.5,3.358-7.5,7.5s3.357,7.5 7.5,7.5c10.753,0 19.776-2.708 27.572-7.136 0.395-0.187 0.771-0.404 1.125-0.654 12.538-7.501 21.85-19.482 30.053-31.738 8.2,12.251 17.508,24.228 30.039,31.729 0.365,0.259 0.754,0.485 1.164,0.676 7.79,4.419 16.806,7.122 27.548,7.122 4.143,0 7.5-3.358 7.5-7.5s-3.357-7.5-7.5-7.5c-6.348,0-11.895-1.239-16.875-3.451v-69.633c4.98-2.212 10.527-3.451 16.875-3.451 4.143,0 7.5-3.358 7.5-7.5s-3.357-7.5-7.5-7.5c-10.746,0-19.765,2.705-27.558,7.127-0.403,0.19-0.788,0.412-1.148,0.667-12.534,7.501-21.843,19.479-30.044,31.732-8.205-12.258-17.518-24.24-30.059-31.741-0.349-0.246-0.72-0.46-1.109-0.644-7.798-4.431-16.824-7.141-27.582-7.141-4.143,0-7.5,3.358-7.5,7.5s3.357,7.5 7.5,7.5c6.348,0 11.895,1.239 16.875,3.451v69.633c-4.981,2.213-10.528,3.452-16.876,3.452zm85.625-62.267v47.999c-6.457-6.591-12.117-14.957-17.957-23.999 5.84-9.043 11.5-17.41 17.957-24zm-53.75,0c6.457,6.591 12.117,14.957 17.957,23.999-5.841,9.042-11.5,17.409-17.957,23.999v-47.998z"/>
  </g>
</svg>
